<svg width="70" height="70" viewBox="0 0 70 70" fill="none" xmlns="http://www.w3.org/2000/svg">
<path d="M21.4706 39.2382V44.0795H20.3781V40.6743L18.9194 43.1119L17.4532 40.6743V44.0795H16.3682V39.2382H17.7741L18.9194 41.2074L20.0383 39.2382H21.4706Z" fill="white"/>
<path d="M23.5254 39.2345H22.4409V44.0758H23.5254V39.2345Z" fill="white"/>
<path d="M25.3303 40.2473H24.0186V39.2345H27.7302V40.2473H26.4185V44.0795H25.3303V40.2473Z" fill="white"/>
<path d="M28.1691 44.0192V43.0069C28.6439 43.0958 29.1258 43.1414 29.6089 43.1432C30.1684 43.1432 30.4478 43.0715 30.4478 42.7662C30.4478 42.4609 30.2098 42.3656 29.4248 42.0124C28.6397 41.6592 28.0942 41.3587 28.0942 40.5386C28.0942 39.5295 28.7102 39.1817 29.925 39.1817C30.3748 39.1762 30.8245 39.2001 31.2712 39.2533V40.2624C30.8322 40.2072 30.3905 40.1757 29.9482 40.1682C29.2945 40.1682 29.1658 40.236 29.1658 40.5009C29.1658 40.7658 29.5212 40.9091 30.0499 41.1508C30.8512 41.51 31.5038 41.8121 31.5038 42.7307C31.5038 43.6493 30.8915 44.1668 29.61 44.1668C29.1274 44.1622 28.6459 44.1192 28.1702 44.0381" fill="white"/>
<path d="M32.1957 42.4437V39.2501H33.2801V42.4135C33.2801 42.9655 33.6092 43.1674 34.1266 43.1674C34.6441 43.1674 34.9806 42.9746 34.9806 42.4135V39.2501H36.0651V42.455C36.0651 43.6267 35.3112 44.1598 34.1266 44.1598C32.942 44.1598 32.1951 43.6267 32.1951 42.455" fill="white"/>
<path d="M37.0278 39.2495H39.1445C40.131 39.2495 40.6791 39.6265 40.6791 40.5004C40.6964 40.7374 40.6305 40.973 40.493 41.1667C40.3554 41.3605 40.1547 41.5003 39.9253 41.5622C40.1954 41.6121 40.4369 41.7614 40.6021 41.9808C40.7673 42.2001 40.8442 42.4735 40.8175 42.7468C40.8175 43.5895 40.3071 44.0962 39.2377 44.0962H37.0278V39.2495ZM38.9857 41.2074C39.424 41.2074 39.578 40.9769 39.578 40.6555C39.578 40.2785 39.389 40.1644 38.9857 40.1644H38.1241V41.2074H38.9857ZM39.0611 43.1803C39.4994 43.1803 39.6733 43.0215 39.6733 42.602C39.6733 42.1825 39.5118 42.0689 39.1101 42.0689H38.1241V43.1803H39.0611Z" fill="white"/>
<path d="M42.5815 39.2345H41.4971V44.0758H42.5815V39.2345Z" fill="white"/>
<path d="M43.4032 44.0192V43.0069C43.878 43.0961 44.36 43.1417 44.8431 43.1432C45.4025 43.1432 45.682 43.0715 45.682 42.7662C45.682 42.4609 45.4402 42.3656 44.6589 42.0124C43.8776 41.6592 43.3284 41.3587 43.3284 40.5386C43.3284 39.5295 43.9406 39.1817 45.1592 39.1817C45.6104 39.1825 46.0612 39.2127 46.5085 39.2722V40.2812C46.0696 40.2261 45.6279 40.1947 45.1855 40.187C44.5319 40.187 44.3994 40.2548 44.3994 40.5198C44.3994 40.7847 44.7548 40.9279 45.2873 41.1697C46.0848 41.5288 46.7412 41.8309 46.7412 42.7495C46.7412 43.6682 46.144 44.163 44.8512 44.163C44.3685 44.1587 43.887 44.1156 43.4113 44.0343" fill="white"/>
<path d="M51.2513 39.2382V44.0795H50.1668V42.1556H48.447V44.0795H47.362V39.2382H48.4465V41.1471H50.1663V39.2382H51.2513Z" fill="white"/>
<path d="M53.2468 39.2345H52.1624V44.0758H53.2468V39.2345Z" fill="white"/>
<path d="M26.6081 45.8204V50.6612H25.5172V47.2597L24.0547 49.6935L22.5885 47.2597V50.6612H21.5035V45.8204H22.9094L24.0547 47.7895L25.1736 45.8204H26.6081Z" fill="white"/>
<path d="M27.4061 48.244C27.4061 46.5091 28.0673 45.7536 29.4921 45.7536C30.9168 45.7536 31.5818 46.5075 31.5818 48.244C31.5818 49.9805 30.9206 50.7312 29.4921 50.7312C28.0635 50.7312 27.4061 49.9773 27.4061 48.244ZM30.4559 48.244C30.4559 47.2538 30.2858 46.7552 29.4921 46.7552C28.6984 46.7552 28.532 47.2543 28.532 48.244C28.532 49.2337 28.7022 49.756 29.4921 49.756C30.282 49.756 30.4559 49.2493 30.4559 48.244Z" fill="white"/>
<path d="M33.1095 46.8295H31.8015V45.8204H35.5115V46.8295H34.2015V50.6612H33.1095V46.8295Z" fill="white"/>
<path d="M35.7285 48.244C35.7285 46.5091 36.3898 45.7536 37.8189 45.7536C39.2479 45.7536 39.9049 46.5075 39.9049 48.244C39.9049 49.9805 39.2436 50.7312 37.8189 50.7312C36.3941 50.7312 35.7285 49.9773 35.7285 48.244ZM38.7784 48.244C38.7784 47.2538 38.6082 46.7552 37.8183 46.7552C37.0284 46.7552 36.8545 47.2543 36.8545 48.244C36.8545 49.2337 37.0246 49.756 37.8183 49.756C38.612 49.756 38.7784 49.2493 38.7784 48.244Z" fill="white"/>
<path d="M40.7045 45.8204H42.6661C43.7053 45.8204 44.3671 46.1973 44.3671 47.3739C44.3971 47.6867 44.3125 47.9998 44.129 48.255C43.9454 48.5101 43.6755 48.6899 43.3693 48.7609L44.5636 50.6504H43.2939L42.2708 48.9192H41.7862V50.6542H40.7045V45.8204ZM42.5939 47.9898C43.085 47.9898 43.2363 47.7443 43.2363 47.3739C43.2363 47.0034 43.085 46.7541 42.5939 46.7541H41.7862V48.0087L42.5939 47.9898Z" fill="white"/>
<path d="M45.0407 50.6019V49.5928C45.5155 49.6817 45.9975 49.7273 46.4805 49.7291C47.04 49.7291 47.3195 49.6537 47.3195 49.3522C47.3195 49.0506 47.0815 48.9515 46.2964 48.5983C45.5113 48.2451 44.9653 47.9398 44.9653 47.1213C44.9653 46.1122 45.5813 45.7644 46.7961 45.7644C47.2462 45.7645 47.6958 45.7935 48.1422 45.8511V46.8607C47.7032 46.8056 47.2616 46.7742 46.8192 46.7665C46.1655 46.7665 46.0369 46.8343 46.0369 47.103C46.0369 47.3717 46.3922 47.5112 46.921 47.7492C47.7185 48.1261 48.3749 48.4104 48.3749 49.3328C48.3749 50.2552 47.7739 50.7425 46.4854 50.7425C46.0027 50.7398 45.5211 50.6968 45.0455 50.6138" fill="white"/>
<path d="M57.4635 58.2292H58.1334V56.2908C58.3817 56.2143 58.6393 56.1723 58.8991 56.1658C58.9585 56.1557 59.0196 56.1596 59.0773 56.1773C59.135 56.195 59.1877 56.2259 59.2313 56.2676C59.274 56.3089 59.3064 56.3597 59.3258 56.4158C59.3451 56.4719 59.351 56.5319 59.3428 56.5907V58.2271H60.0126V56.5578C60.0302 56.4363 60.0211 56.3123 59.9861 56.1946C59.951 56.0768 59.8908 55.9681 59.8096 55.8759C59.7283 55.7837 59.6281 55.7103 59.5157 55.6607C59.4033 55.6111 59.2814 55.5865 59.1586 55.5886C58.7883 55.5863 58.4221 55.6664 58.0865 55.8228V55.6414H57.4625L57.4635 58.2292ZM55.51 57.708C54.9893 57.708 54.8132 57.4361 54.8132 56.9294C54.8132 56.4227 54.9893 56.1755 55.51 56.1755C56.0307 56.1755 56.21 56.4286 56.21 56.9294C56.21 57.4302 56.0264 57.708 55.51 57.708ZM55.51 58.2825C55.7744 58.2747 56.0306 58.1892 56.2467 58.0366C56.4628 57.884 56.6291 57.6711 56.7249 57.4245C56.8207 57.178 56.8417 56.9086 56.7854 56.6502C56.729 56.3917 56.5978 56.1556 56.408 55.9713C56.2183 55.787 55.9784 55.6627 55.7185 55.6139C55.4585 55.5651 55.1899 55.594 54.9462 55.697C54.7025 55.7999 54.4946 55.9724 54.3484 56.1928C54.2022 56.4132 54.1241 56.6719 54.124 56.9364C54.1036 57.1216 54.1258 57.3091 54.1888 57.4845C54.2519 57.6599 54.3541 57.8185 54.4878 57.9484C54.6215 58.0782 54.7831 58.1758 54.9602 58.2337C55.1374 58.2916 55.3254 58.3083 55.51 58.2825ZM52.8565 58.2287H53.5225V55.6403H52.8565V58.2287ZM53.186 55.2672L53.6571 54.7987L53.186 54.3227L52.7148 54.7987L53.186 55.2672ZM51.7499 58.2906C51.9357 58.2895 52.1212 58.2757 52.3051 58.2492V57.6332C52.1642 57.651 52.0223 57.6598 51.8802 57.6595C51.5394 57.6595 51.3784 57.6057 51.3784 57.2826V56.1465H52.2254V55.6026H51.3789V54.8918H50.7177V55.6026H50.2331V56.1465H50.7177V57.4124C50.7177 58.0284 51.0736 58.2438 51.7515 58.2438M49.0711 58.1899H49.7409V55.6026H49.07L49.0711 58.1899ZM49.4006 55.2284L49.8718 54.7599L49.4006 54.2839L48.9375 54.7599L49.4006 55.2284ZM47.1568 57.6622C46.9088 57.6574 46.6627 57.6179 46.4256 57.5449V56.2369C46.6623 56.1624 46.9087 56.1228 47.1568 56.1195C47.6199 56.1195 47.7965 56.4216 47.7965 56.8982C47.7965 57.3747 47.6091 57.652 47.1568 57.652M47.306 55.5391C47.002 55.5442 46.7018 55.6071 46.4213 55.7243V54.3243H45.7504V58.1792H46.41V58.0052C46.6807 58.1551 46.9853 58.2332 47.2947 58.2319C48.0221 58.2319 48.4432 57.6875 48.4432 56.8858C48.4432 56.084 48.0125 55.5364 47.2947 55.5364M40.7023 58.1878H41.3721V56.2542C41.6079 56.1693 41.8566 56.1257 42.1071 56.1255C42.3559 56.1255 42.5245 56.2428 42.5245 56.5675V58.1829H43.1943V56.4706C43.2024 56.3978 43.2024 56.3243 43.1943 56.2515C43.4314 56.1613 43.6837 56.1176 43.9374 56.1228C43.9966 56.1159 44.0565 56.1229 44.1126 56.143C44.1686 56.1632 44.2192 56.1961 44.2605 56.2391C44.3008 56.2816 44.3306 56.3329 44.3477 56.389C44.3647 56.4451 44.3684 56.5044 44.3585 56.5622V58.1775H45.0245V56.4728C45.0414 56.3501 45.0303 56.2252 44.9921 56.1074C44.9539 55.9896 44.8895 55.882 44.8038 55.7927C44.7173 55.7025 44.6118 55.6326 44.4951 55.5881C44.3783 55.5436 44.2531 55.5256 44.1285 55.5353C43.7293 55.5318 43.3352 55.6251 42.98 55.8072C42.8945 55.7152 42.7897 55.6431 42.6732 55.5961C42.5567 55.5491 42.4313 55.5284 42.3058 55.5353C41.9662 55.5429 41.6322 55.6228 41.3258 55.7695V55.5881H40.7071L40.7023 58.1878ZM37.639 56.6456C37.8185 56.0344 38.0758 55.4488 38.4047 54.9032C38.7385 55.4518 39.0095 56.0363 39.2124 56.6456H37.639ZM38.9523 54.5252L38.8985 54.4385H37.9389L37.8969 54.5214C37.5141 55.2962 36.8399 56.2105 36.8399 57.7376V58.1835H37.5254V57.8065C37.5244 57.6132 37.5359 57.4201 37.5598 57.2282H39.3518C39.3725 57.4228 39.3828 57.6184 39.3825 57.8141V58.191H40.0793V57.7791C40.0381 56.6121 39.6556 55.4829 38.9792 54.5311M33.7141 58.1926H34.3727V56.2542C34.7054 56.1608 35.0504 56.1187 35.3958 56.1292V55.5509C35.0256 55.5497 34.6596 55.6296 34.3237 55.7852V55.6037H33.7023L33.7141 58.1926ZM32.9867 55.6037H32.3098V57.5422C32.0616 57.6196 31.804 57.6629 31.5441 57.6708C31.4843 57.6812 31.4227 57.6773 31.3646 57.6595C31.3065 57.6416 31.2535 57.6103 31.2098 57.568C31.167 57.5259 31.1349 57.4741 31.1162 57.4171C31.0974 57.36 31.0926 57.2994 31.1021 57.2401V55.6026H30.4301V57.2718C30.4125 57.3937 30.4218 57.518 30.4571 57.636C30.4924 57.754 30.5529 57.8628 30.6346 57.9551C30.7162 58.0473 30.8169 58.1206 30.9297 58.17C31.0425 58.2194 31.1647 58.2437 31.2878 58.2411C31.6571 58.2449 32.0224 58.1648 32.3561 58.0068V58.1883H32.9765L32.9867 55.6037ZM28.5029 57.7091C27.9822 57.7091 27.8062 57.4372 27.8062 56.9305C27.8062 56.4238 27.9822 56.1766 28.5029 56.1766C29.0236 56.1766 29.2029 56.4297 29.2029 56.9305C29.2029 57.4312 29.0231 57.7091 28.5029 57.7091ZM28.5029 58.2836C28.8599 58.2836 29.2023 58.1418 29.4548 57.8893C29.7072 57.6369 29.8491 57.2945 29.8491 56.9375C29.8491 56.5804 29.7072 56.238 29.4548 55.9856C29.2023 55.7331 28.8599 55.5913 28.5029 55.5913C28.1459 55.5913 27.8035 55.7331 27.551 55.9856C27.2986 56.238 27.1568 56.5804 27.1568 56.9375C27.1568 57.2945 27.2986 57.6369 27.551 57.8893C27.8035 58.1418 28.1459 58.2836 28.5029 58.2836ZM24.7638 59.5479L25.8779 58.0359C26.4206 57.3554 26.7281 56.5173 26.7545 55.6473H26.0955C26.0789 56.3621 25.8436 57.0546 25.4213 57.6315C24.9787 57.0585 24.7293 56.3598 24.7089 55.636H24.0428C24.0765 56.5608 24.4251 57.4463 25.0309 58.1458L24.2922 59.1775L24.7638 59.5479ZM20.552 56.7172C20.5789 56.3166 20.7318 56.0937 21.1955 56.0937C21.7431 56.0937 21.7775 56.3468 21.7878 56.7172H20.552ZM21.3177 58.282C21.6329 58.292 21.9482 58.2616 22.2557 58.1915V57.6321C21.962 57.7009 21.6613 57.7353 21.3597 57.7344C20.8751 57.7344 20.5595 57.5906 20.5326 57.1335H22.4092V56.8615C22.4092 56.0339 22.1399 55.573 21.1955 55.573C20.251 55.573 19.8628 56.0226 19.8628 56.9111C19.8628 57.7995 20.3797 58.268 21.3166 58.268M17.8742 58.2303H18.5139C19.136 57.508 19.4914 56.5942 19.5208 55.6414H18.8408C18.8332 56.3577 18.603 57.0539 18.1822 57.6337C17.7671 57.0558 17.5386 56.3647 17.5275 55.6532H16.8555C16.8866 56.6037 17.2449 57.5142 17.8699 58.2308M15.6488 58.2308H16.3148V55.6403H15.6418L15.6488 58.2308ZM15.9783 55.2693L16.4495 54.8008L15.9557 54.3248L15.4926 54.8008L15.9783 55.2693ZM13.4551 58.2308H14.1212V56.2924C14.4539 56.1991 14.7988 56.1569 15.1442 56.1675V55.5892C14.7752 55.5872 14.4103 55.6672 14.0759 55.8234V55.6419H13.4475L13.4551 58.2308ZM10.3228 57.6073V55.1051H11.2C11.8435 55.1051 12.1649 55.482 12.1649 56.3435C12.1649 57.2051 11.8316 57.6095 11.1806 57.6095L10.3228 57.6073ZM9.64869 58.2308H11.1801C12.2215 58.2308 12.8762 57.6385 12.8762 56.3414C12.8762 55.0442 12.2301 54.4514 11.2027 54.4514H9.67238L9.64869 58.2308Z" fill="white"/>
<path d="M30.0887 19.1272L34.7297 27.1622L39.3669 19.1272L34.7297 11.0923L30.0887 19.1272Z" fill="#ED0000"/>
<path d="M44.0914 27.4395H34.8126L39.4498 35.4744H48.7286L44.0914 27.4395Z" fill="#ED0000"/>
<path d="M25.3685 27.4395H34.6473L30.0063 35.4744H20.7275L25.3685 27.4395Z" fill="#ED0000"/>
</svg>
